<svg xmlns="http://www.w3.org/2000/svg" viewBox="0 0 24 24" role="img" aria-labelledby="lnktitle">
  <title id="lnktitle">Links</title>
  <rect x="1.8" y="1.8" width="20.4" height="20.4" rx="6.8" fill="#0f7f87" />
  <path
    d="M9.65 15.85a3.2 3.2 0 0 1 0-4.53l1.87-1.87a3.2 3.2 0 0 1 4.53 4.53l-.86.86-.99-.99.86-.86a1.8 1.8 0 1 0-2.55-2.55l-1.87 1.87a1.8 1.8 0 0 0 2.55 2.55l.41-.41.99.99-.41.41a3.2 3.2 0 0 1-4.53 0zm4.7-7.7.99.99-.41.41a1.8 1.8 0 1 0 2.55 2.55l1.87-1.87a1.8 1.8 0 1 0-2.55-2.55l-.86.86-.99-.99.86-.86a3.2 3.2 0 1 1 4.53 4.53l-1.87 1.87a3.2 3.2 0 0 1-4.53-4.53l.41-.41z"
    fill="#fff"
  />
</svg>
