<svg xmlns="http://www.w3.org/2000/svg" viewBox="0 0 24 24" role="img" aria-labelledby="ghtitle">
  <title id="ghtitle">GitHub</title>
  <circle cx="12" cy="12" r="10.2" fill="#10141b" />
  <path
    d="M12 5.2a6.9 6.9 0 0 0-2.18 13.44c.35.07.47-.15.47-.34v-1.22c-1.93.42-2.34-.82-2.34-.82-.31-.79-.78-.99-.78-.99-.64-.44.05-.43.05-.43.7.06 1.08.73 1.08.73.63 1.06 1.65.76 2.05.58.07-.45.25-.75.45-.93-1.54-.18-3.15-.75-3.15-3.36 0-.74.27-1.34.72-1.82-.07-.18-.31-.9.07-1.88 0 0 .58-.18 1.9.69a6.6 6.6 0 0 1 3.45 0c1.31-.88 1.89-.69 1.89-.69.39.98.15 1.7.08 1.88.45.48.72 1.08.72 1.82 0 2.61-1.61 3.18-3.15 3.36.26.22.48.65.48 1.31v1.95c0 .19.13.41.48.34A6.9 6.9 0 0 0 12 5.2z"
    fill="#fff"
  />
</svg>
