<svg xmlns="http://www.w3.org/2000/svg" viewBox="0 0 24 24" role="img" aria-labelledby="dctitle">
  <title id="dctitle">Discord</title>
  <rect x="1.8" y="1.8" width="20.4" height="20.4" rx="6.8" fill="#5865f2" />
  <path
    d="M8.36 8.04a9.7 9.7 0 0 1 2.27-.74l.11.22c-2.2.64-3.37 1.94-3.89 3.52.33.24.66.45.99.62.34-.5.76-.95 1.24-1.32-.18-.13-.36-.24-.55-.35l.45-.32a7.72 7.72 0 0 1 6.04 0l.45.32a5.22 5.22 0 0 0-.55.35c.49.37.9.82 1.24 1.32.34-.17.67-.38 1-.62-.52-1.58-1.69-2.88-3.89-3.52l.11-.22a9.7 9.7 0 0 1 2.27.74c1.62 2.5 1.48 4.91 1.4 5.4a9.86 9.86 0 0 1-2.72 1.36l-.4-.67c.6-.21 1.17-.51 1.69-.88a4.7 4.7 0 0 1-1.03.52 9.13 9.13 0 0 1-6.16 0 4.74 4.74 0 0 1-1.03-.52c.52.37 1.09.67 1.69.88l-.4.67a9.86 9.86 0 0 1-2.72-1.36c-.08-.49-.22-2.9 1.4-5.4z"
    fill="#fff"
  />
  <circle cx="10.2" cy="12.25" r="1.02" fill="#5865f2" />
  <circle cx="13.8" cy="12.25" r="1.02" fill="#5865f2" />
</svg>
